<?xml version="1.0" encoding="UTF-8"?> <svg xmlns="http://www.w3.org/2000/svg" xmlns:xlink="http://www.w3.org/1999/xlink" width="151px" height="40px" viewBox="0 0 151 40" version="1.1"><!-- Generator: Sketch 52.3 (67297) - http://www.bohemiancoding.com/sketch --><title>Group 3</title><desc>Created with Sketch.</desc><defs><path d="M3.95358678,0.0005 C1.768957,0.0005 0.00049426013,1.7905 0.00049426013,4 L0.00049426013,36 C0.00049426013,38.21 1.76994552,40 3.95358678,40 L35.5867293,40 C37.7713591,40 39.5408104,38.209 39.5408104,36 L39.5408104,4 C39.5408104,1.79 37.7703706,0.0005 35.5867293,0.0005 L3.95358678,0.0005 Z" id="path-1"></path><linearGradient x1="98.7632345%" y1="98.7643596%" x2="2.04117551%" y2="2.04120052%" id="linearGradient-3"><stop stop-color="#7791FF" offset="0%"></stop><stop stop-color="#70C9FF" offset="100%"></stop></linearGradient><path d="M3.95358678,0.0005 C1.768957,0.0005 0.00049426013,1.7905 0.00049426013,4 L0.00049426013,36 C0.00049426013,38.21 1.76994552,40 3.95358678,40 L35.5867293,40 C37.7713591,40 39.5408104,38.209 39.5408104,36 L39.5408104,4 C39.5408104,1.79 37.7703706,0.0005 35.5867293,0.0005 L3.95358678,0.0005 Z" id="path-4"></path></defs><g id="_NEW-Website-TradeTools" stroke="none" stroke-width="1" fill="none" fill-rule="evenodd"><g id="TT_Website_v5-_-Appstore-Portugues-Copy-3" transform="translate(-30.000000, -25.000000)"><g id="Group-3" transform="translate(30.000000, 25.000000)"><g id="Group-4"><g id="Group-50"><mask id="mask-2" fill="white"><use xlink:href="#path-1"></use></mask><g id="Clip-49"></g><path d="M3.95358678,0.0005 C1.768957,0.0005 0.00049426013,1.7905 0.00049426013,4 L0.00049426013,36 C0.00049426013,38.21 1.76994552,40 3.95358678,40 L35.5867293,40 C37.7713591,40 39.5408104,38.209 39.5408104,36 L39.5408104,4 C39.5408104,1.79 37.7703706,0.0005 35.5867293,0.0005 L3.95358678,0.0005 Z" id="Fill-48" fill="url(#linearGradient-3)" mask="url(#mask-2)"></path></g><g id="Group-8" transform="translate(13.295597, 9.666667)" fill="#FFFFFF"><polygon id="Fill-51" points="0 0 0 10.6666667 2.58774411 10.6666667 2.58774411 6.63589694 13.2955975 6.63589694 13.2955975 4.03076973 2.58774411 4.03076973 2.58774411 0"></polygon><polygon id="Fill-52" points="10.7075389 10 10.7075389 14.031288 0 14.031288 0 16.6353787 10.7075389 16.6353787 10.7075389 20.6666667 13.2955975 20.6666667 13.2955975 10"></polygon></g></g><g id="Group-4-Copy"><g id="Group-50"><mask id="mask-5" fill="white"><use xlink:href="#path-4"></use></mask><g id="Clip-49"></g><path d="M3.95358678,0.0005 C1.768957,0.0005 0.00049426013,1.7905 0.00049426013,4 L0.00049426013,36 C0.00049426013,38.21 1.76994552,40 3.95358678,40 L35.5867293,40 C37.7713591,40 39.5408104,38.209 39.5408104,36 L39.5408104,4 C39.5408104,1.79 37.7703706,0.0005 35.5867293,0.0005 L3.95358678,0.0005 Z" id="Fill-48" fill="#5B7FF6" mask="url(#mask-5)"></path></g><g id="Group-8" transform="translate(13.295597, 9.666667)" fill="#FFFFFF"><polygon id="Fill-51" points="0 0 0 10.6666667 2.58774411 10.6666667 2.58774411 6.63589694 13.2955975 6.63589694 13.2955975 4.03076973 2.58774411 4.03076973 2.58774411 0"></polygon><polygon id="Fill-52" points="10.7075389 10 10.7075389 14.031288 0 14.031288 0 16.6353787 10.7075389 16.6353787 10.7075389 20.6666667 13.2955975 20.6666667 13.2955975 10"></polygon></g></g><g id="Group-41-Copy-5" transform="translate(50.333333, 12.380952)" fill="#3B3E4A"><path d="M19.2956184,5.31590434 L18.6807227,6.58964668 C18.1919855,6.31634566 17.6714551,6.18036012 17.120146,6.18036012 C16.3469604,6.18036012 15.6928304,6.38450468 15.1567415,6.79379124 C14.5733009,7.21837202 14.282088,7.79423257 14.282088,8.52170536 L14.282088,15.9101424 L12.721173,15.9101424 L12.721173,4.90728274 L14.282088,4.90728274 L14.282088,5.7251909 C14.9125421,5.04360077 15.8582232,4.70247321 17.120146,4.70247321 C18.0972821,4.70247321 18.8227778,4.90728274 19.2956184,5.31590434" id="Fill-5"></path><polygon id="Fill-3" points="12.1009334 1.58767279 6.96868547 1.58767279 6.96868547 15.9100427 5.31340531 15.9100427 5.31340531 1.58767279 0.181157422 1.58767279 0.181157422 0.0416268707 12.1009334 0.0416268707"></polygon><path d="M27.3007278,13.323724 L27.3007278,10.6588728 C27.0169558,10.8254468 26.6621563,10.9089 26.2363292,10.9089 L24.1920886,10.9089 C23.6607349,10.9089 23.1263372,11.0389009 22.6903633,11.3308209 C22.1373631,11.700542 21.8613703,12.1969391 21.8613703,12.8183498 C21.8613703,13.4068447 22.1272163,13.8763107 22.6595847,14.2270803 C23.1513659,14.5509187 23.7615264,14.672275 24.3578196,14.6546534 C25.7854734,14.6124281 26.3269739,14.3401245 27.0808806,13.7742384 C27.2229357,13.6675114 27.3007278,13.4969476 27.3007278,13.323724 L27.3007278,13.323724 Z M27.4187688,15.3638396 C26.4727495,15.9706211 25.3691166,16.1371951 24.1078703,16.1371951 C23.0827059,16.1371951 22.199935,15.8346355 21.4592191,15.2278541 C20.6708133,14.5765199 20.2764412,13.7729085 20.2764412,12.8183498 C20.2764412,11.8029468 20.6626958,10.9843736 21.4355432,10.3629629 C22.1451423,9.78710238 23.0356925,9.49917211 24.1078703,9.49917211 L26.0942741,9.49917211 C26.6148046,9.49917211 27.0169558,9.37050119 27.3007278,9.11282687 L27.3007278,7.95345867 C27.3007278,7.37759813 27.0325142,6.93805561 26.4967636,6.63449864 C26.0550398,6.3771568 25.5189509,6.24848588 24.8884969,6.24848588 C23.4222853,6.24848588 22.507721,6.81669932 22.1451423,7.95345867 L20.7022683,7.43013044 C21.2701505,5.64236939 22.6808929,4.74765765 24.9358486,4.74765765 C25.9921297,4.74765765 26.8904591,5.02062619 27.6318515,5.5658983 C28.4513741,6.17301224 28.8616428,6.96831156 28.8616428,7.95345867 L28.8616428,13.2718566 C28.8616428,14.0388949 28.4486683,14.7517384 27.7698478,15.1553728 L27.4187688,15.3638396 Z" id="Fill-9"></path><path d="M38.8529192,8.63564728 C38.8529192,7.95339218 38.568809,7.38118895 38.0016033,6.9187051 C37.4337211,6.45688622 36.7636946,6.22547806 35.9908472,6.22547806 C34.7769525,6.22547806 33.9334158,6.67300017 33.4605752,7.56704694 C33.1135549,8.21904609 32.940383,9.18091939 32.940383,10.4539968 C32.940383,11.7117799 33.1135549,12.6673361 33.4605752,13.3186702 C33.9334158,14.1821286 34.7769525,14.6143565 35.9908472,14.6143565 C36.8110463,14.6143565 37.5849083,14.4840231 38.1287764,14.0517952 C38.6726446,13.6205648 38.8529192,13.1148582 38.8529192,12.296285 L38.8529192,8.63564728 Z M39.0389438,15.2454092 C38.2349795,15.8817816 37.1577284,16.1141872 35.9908472,16.1141872 C32.9008105,16.1141872 31.3557921,14.2280112 31.3557921,10.4539968 C31.3557921,6.63476463 32.9008105,4.7253148 35.9908472,4.7253148 C36.6534327,4.7253148 37.173625,4.78615918 37.5517622,4.90751548 C37.9305758,5.02887177 38.364182,5.28621361 38.8529192,5.67987347 L38.8529192,0.0416268707 L40.4371719,0.0416268707 L40.4371719,12.4854679 C40.4371719,13.4982111 40.0820341,14.3437153 39.2987017,15.0209832 L39.0389438,15.2454092 Z" id="Fill-13"></path><path d="M50.6653421,9.45412066 C50.5544038,7.28666403 49.6009435,6.20310196 47.80327,6.20310196 C45.8168662,6.20310196 44.72913,7.28666403 44.5400614,9.45412066 L50.6653421,9.45412066 Z M52.2495947,9.95351012 L52.2262571,10.9313426 L44.4927097,10.9313426 C44.5552816,13.4020237 45.7302802,14.637198 48.0163527,14.637198 C49.2934957,14.637198 50.2784111,14.2132822 50.9724517,13.3637882 L52.0368503,14.3871708 C51.1063894,15.5385594 49.7666745,16.11442 48.0163527,16.11442 C44.6107507,16.11442 42.9077807,14.2355586 42.9077807,10.4768384 C42.9077807,8.79480689 43.2781386,7.45323801 44.0195309,6.4524642 C44.8864053,5.3010756 46.1479899,4.72521505 47.80327,4.72521505 C49.3012749,4.72521505 50.4363628,5.25585791 51.2092102,6.31647866 C51.9029126,7.24144634 52.2495947,8.45367934 52.2495947,9.95351012 L52.2495947,9.95351012 Z" id="Fill-17"></path><polygon id="Fill-21" stroke="#3B3E4A" stroke-width="0.5" points="63.568782 1.59877772 58.4365341 1.59877772 58.4365341 15.9211476 56.7812539 15.9211476 56.7812539 1.59877772 51.649006 1.59877772 51.649006 0.0527318027 63.568782 0.0527318027"></polygon><path d="M70.5032356,10.4420274 C70.5032356,9.1240648 70.3060496,8.13891769 69.9120158,7.48725102 C69.4070437,6.65371616 68.5161553,6.23645 67.2390123,6.23645 C65.9781042,6.23645 65.0949949,6.65371616 64.5906993,7.48725102 C64.1966655,8.13891769 63.9994795,9.1240648 63.9994795,10.4420274 C63.9994795,11.7460257 64.1966655,12.7152136 64.5906993,13.3525835 C65.0949949,14.1857859 65.9781042,14.6023871 67.2390123,14.6023871 C68.5161553,14.6023871 69.4070437,14.1857859 69.9120158,13.3525835 C70.3060496,12.7152136 70.5032356,11.7460257 70.5032356,10.4420274 M72.0874882,10.419751 C72.0874882,14.1931005 70.4792215,16.080274 67.2630264,16.080274 C64.0309346,16.080274 62.4148887,14.2014126 62.4148887,10.4420274 C62.4148887,6.63842194 64.0309346,4.73661922 67.2630264,4.73661922 C70.4792215,4.73661922 72.0874882,6.63077483 72.0874882,10.419751" id="Fill-25" stroke="#3B3E4A" stroke-width="0.5"></path><path d="M82.3160305,10.4420274 C82.3160305,9.1240648 82.1188445,8.13891769 81.7248107,7.48725102 C81.2198387,6.65371616 80.3289502,6.23645 79.0518072,6.23645 C77.7908991,6.23645 76.9077899,6.65371616 76.4034943,7.48725102 C76.0094605,8.13891769 75.8122745,9.1240648 75.8122745,10.4420274 C75.8122745,11.7460257 76.0094605,12.7152136 76.4034943,13.3525835 C76.9077899,14.1857859 77.7908991,14.6023871 79.0518072,14.6023871 C80.3289502,14.6023871 81.2198387,14.1857859 81.7248107,13.3525835 C82.1188445,12.7152136 82.3160305,11.7460257 82.3160305,10.4420274 M83.9002831,10.419751 C83.9002831,14.1931005 82.2920165,16.080274 79.0758213,16.080274 C75.8437295,16.080274 74.2280218,14.2014126 74.2280218,10.4420274 C74.2280218,6.63842194 75.8437295,4.73661922 79.0758213,4.73661922 C82.2920165,4.73661922 83.9002831,6.63077483 83.9002831,10.419751" id="Fill-29" stroke="#3B3E4A" stroke-width="0.5"></path><path d="M89.3280395,15.9211809 C87.5773794,15.9211809 86.7027259,15.0577225 86.7027259,13.3294759 L86.7027259,0.052765051 L88.3109926,0.052765051 L88.3109926,13.2387081 C88.3109926,13.6632889 88.3735645,13.9661809 88.4997229,14.1480491 C88.6258814,14.3302497 88.9022124,14.4203526 89.3280395,14.4203526 L89.3280395,15.9211809 Z" id="Fill-33" stroke="#3B3E4A" stroke-width="0.5"></path><path d="M100.240881,12.7842038 C100.240881,13.8149011 99.792055,14.648436 98.8927109,15.2848084 C98.0728501,15.8300805 97.0960521,16.1030491 95.960626,16.1030491 C93.4060017,16.1030491 91.8457632,15.0650372 91.2782193,12.9883484 L92.838796,12.5112353 C93.2176096,13.9355924 94.2576559,14.648436 95.960626,14.648436 C96.6539902,14.648436 97.2529892,14.5041384 97.7579613,14.2162081 C98.3569603,13.8674334 98.6566289,13.3903203 98.6566289,12.7842038 C98.6566289,12.0108484 98.0498507,11.4506145 96.835956,11.1015074 C95.7157501,10.7833212 94.5962206,10.4731145 93.4777057,10.1695576 C92.2627964,9.65454141 91.6563564,8.83630077 91.6563564,7.71417066 C91.6563564,6.75961199 92.0818453,6.00919787 92.9334994,5.46392577 C93.6742153,4.97916556 94.5732212,4.73645298 95.6295023,4.73645298 C97.6632579,4.73645298 99.0898969,5.54006437 99.9097578,7.14595723 L98.4908979,7.805271 C97.9707057,6.74498274 97.0169071,6.21433988 95.6295023,6.21433988 C95.0305033,6.21433988 94.5099728,6.32006947 94.0689256,6.53252611 C93.5162636,6.80482968 93.240609,7.19915451 93.240609,7.71417066 C93.240609,8.30565791 93.8480637,8.76814175 95.0619584,9.10095723 C97.0635824,9.66218852 98.1837883,9.99566896 98.4202086,10.101731 C99.6341033,10.6922208 100.240881,11.5869326 100.240881,12.7842038" id="Fill-37" stroke="#3B3E4A" stroke-width="0.5"></path></g></g></g></g></svg> 